External Loads File
version=1
nRows=64
nColumns=13
Range=5.000000e-03-10 seconds
endheader
time 	forceRightX 	forceRightY 	forceRightZ 	pointRightX 	pointRightY 	pointRightZ 	forceLeftX 	forceLeftY 	forceLeftZ 	pointLeftX 	pointLeftY 	pointLeftZ 		
0.005000 0.946493 73.190682 -0.000000 0.357688 0.401653 -0.162561 14.252911 111.218880 -0.000000 0.060532 0.251437 -0.397994
0.010000 2.754603 73.862653 -0.000000 0.357349 0.402327 -0.162561 13.927038 111.034732 -0.000000 0.060729 0.250756 -0.398004
0.015000 4.385369 74.464268 -0.000000 0.357071 0.402936 -0.162569 13.703392 110.893835 -0.000000 0.060906 0.250091 -0.397989
0.020000 5.698686 74.954870 -0.000000 0.356792 0.403497 -0.162558 13.597683 110.840832 -0.000000 0.061124 0.249463 -0.398062
0.025000 6.545526 75.334567 -0.000000 0.356380 0.404463 -0.162535 13.470806 110.910610 -0.000000 0.061255 0.248829 -0.398120
0.030000 7.094809 75.590403 -0.000000 0.356079 0.405079 -0.162535 13.520465 111.063815 -0.000000 0.061485 0.248151 -0.398184
0.035000 7.362700 75.731440 -0.000000 0.355776 0.405722 -0.162506 13.642372 111.281648 -0.000000 0.061691 0.247584 -0.398169
0.040000 7.385354 75.784462 -0.000000 0.355462 0.406421 -0.162528 13.740277 111.552336 -0.000000 0.061912 0.246946 -0.398164
0.045000 7.282965 75.779248 -0.000000 0.355164 0.406995 -0.162560 13.865237 111.866969 -0.000000 0.062166 0.246220 -0.398188
0.050000 7.122611 75.745853 -0.000000 0.354866 0.407694 -0.162545 14.054439 112.243057 -0.000000 0.062407 0.245647 -0.398149
0.055000 6.912231 75.705900 -0.000000 0.354565 0.408385 -0.162561 14.327875 112.718120 -0.000000 0.062646 0.244968 -0.398132
0.060000 6.689165 75.666545 -0.000000 0.354251 0.408995 -0.162587 14.768144 113.310490 -0.000000 0.062909 0.244257 -0.398157
0.065000 6.464245 75.635382 -0.000000 0.353983 0.409696 -0.162607 15.365676 114.009115 -0.000000 0.063159 0.243648 -0.398148
0.070000 6.210200 75.629382 -0.000000 0.353633 0.410410 -0.162596 15.980335 114.778850 -0.000000 0.063454 0.242962 -0.398193
0.075000 5.996628 75.659219 -0.000000 0.353299 0.410995 -0.162593 16.584338 115.542467 -0.000000 0.063709 0.242229 -0.398193
0.080000 5.796291 75.732999 -0.000000 0.352998 0.411707 -0.162574 17.004782 116.224391 -0.000000 0.063985 0.241567 -0.398217
0.085000 5.585431 75.845432 -0.000000 0.352661 0.412482 -0.162573 17.085609 116.739648 -0.000000 0.064300 0.240844 -0.398263
0.090000 5.426334 75.979097 -0.000000 0.352288 0.413054 -0.162565 16.827231 116.994002 -0.000000 0.064596 0.240097 -0.398233
0.095000 5.265299 76.122787 -0.000000 0.351946 0.413796 -0.162575 16.103374 116.949493 -0.000000 0.064882 0.239449 -0.398252
0.100000 5.077691 76.259780 -0.000000 0.351617 0.414533 -0.162614 14.920991 116.609893 -0.000000 0.065199 0.238701 -0.398228
0.105000 4.908376 76.366131 -0.000000 0.351262 0.415148 -0.162641 13.497970 116.032046 -0.000000 0.065496 0.237994 -0.398247
0.110000 4.740051 76.426565 -0.000000 0.350961 0.415850 -0.162651 12.030753 115.351369 -0.000000 0.065783 0.237361 -0.398255
0.115000 4.486621 76.446716 -0.000000 0.350627 0.417034 -0.162628 10.609782 114.738892 -0.000000 0.066040 0.236650 -0.398242
0.120000 4.534229 76.427443 -0.000000 0.350314 0.417071 -0.162657 9.955713 114.279923 -0.000000 0.066311 0.235983 -0.398272
0.125000 4.474688 76.428014 -0.000000 0.350190 0.418415 -0.162817 9.510761 114.126919 -0.000000 0.066571 0.235367 -0.398272
0.130000 4.666800 76.450146 -0.000000 0.349895 0.418993 -0.162801 9.812689 114.279902 -0.000000 0.066833 0.234737 -0.398243
0.135000 4.968691 76.500310 -0.000000 0.349582 0.419515 -0.162840 10.617089 114.741435 -0.000000 0.067113 0.234115 -0.398255
0.140000 5.278735 76.565813 -0.000000 0.349266 0.420288 -0.162857 11.706025 115.449730 -0.000000 0.067385 0.233555 -0.398237
0.145000 5.583912 76.621121 -0.000000 0.348964 0.420920 -0.162880 12.960752 116.297133 -0.000000 0.067629 0.232885 -0.398216
0.150000 5.879609 76.639287 -0.000000 0.348660 0.421365 -0.162888 14.247182 117.161762 -0.000000 0.067875 0.232292 -0.398231
0.155000 6.024798 76.613599 -0.000000 0.348361 0.422110 -0.162912 15.205234 117.942070 -0.000000 0.068163 0.231691 -0.398219
0.160000 6.076092 76.538678 -0.000000 0.348048 0.422740 -0.162908 15.787001 118.510870 -0.000000 0.068443 0.231006 -0.398261
0.165000 6.031100 76.430994 -0.000000 0.347416 0.423258 -0.162650 15.893129 118.795387 -0.000000 0.068709 0.230395 -0.398252
0.170000 5.929788 76.318807 -0.000000 0.347112 0.423947 -0.162659 15.541461 118.781204 -0.000000 0.068978 0.229755 -0.398255
0.175000 5.794359 76.232677 -0.000000 0.346764 0.424602 -0.162672 14.788204 118.516452 -0.000000 0.069269 0.229070 -0.398249
0.180000 5.665659 76.186665 -0.000000 0.346424 0.425248 -0.162698 13.780926 118.079212 -0.000000 0.069585 0.228409 -0.398251
0.185000 5.538519 76.182884 -0.000000 0.346103 0.425965 -0.162670 12.622006 117.566109 -0.000000 0.069918 0.227723 -0.398246
0.190000 5.444473 76.213970 -0.000000 0.345732 0.426616 -0.162704 11.470205 117.063713 -0.000000 0.070210 0.226997 -0.398228
0.195000 5.363110 76.276003 -0.000000 0.345337 0.427335 -0.162715 10.400398 116.652549 -0.000000 0.070558 0.226313 -0.398257
0.200000 5.295027 76.366380 -0.000000 0.344954 0.428075 -0.162695 9.498267 116.376634 -0.000000 0.070880 0.225608 -0.398263
0.205000 5.235251 76.484178 -0.000000 0.344561 0.428708 -0.162709 8.786325 116.235600 -0.000000 0.071247 0.224870 -0.398270
0.210000 5.141201 76.623202 -0.000000 0.344150 0.429495 -0.162741 8.169911 116.192429 -0.000000 0.071600 0.224148 -0.398251
0.215000 5.028989 76.755034 -0.000000 0.343756 0.430244 -0.162742 7.618853 116.181470 -0.000000 0.072008 0.223441 -0.398229
0.220000 4.888608 76.841407 -0.000000 0.343272 0.430893 -0.162768 7.070750 116.145400 -0.000000 0.072393 0.222717 -0.398227
0.225000 4.707204 76.855906 -0.000000 0.342795 0.431677 -0.162799 6.472523 116.054478 -0.000000 0.072751 0.222024 -0.398208
0.230000 4.515860 76.791204 -0.000000 0.342352 0.432368 -0.162753 5.868079 115.912106 -0.000000 0.073178 0.221252 -0.398222
0.235000 4.360141 76.653961 -0.000000 0.341901 0.433056 -0.162722 5.371365 115.756519 -0.000000 0.073565 0.220605 -0.398242
0.240000 4.206102 76.471955 -0.000000 0.341442 0.433822 -0.162703 4.999411 115.655113 -0.000000 0.073947 0.219908 -0.398238
0.245000 4.158763 76.286823 -0.000000 0.340977 0.434348 -0.162687 4.958288 115.668589 -0.000000 0.074309 0.219254 -0.398210
0.250000 4.164665 76.155494 -0.000000 0.340505 0.434995 -0.162711 5.170187 115.844654 -0.000000 0.074740 0.218595 -0.398205
0.255000 4.270829 76.111861 -0.000000 0.340068 0.435765 -0.162747 5.660432 116.177872 -0.000000 0.075127 0.217971 -0.398222
0.260000 4.531791 76.164798 -0.000000 0.339650 0.436254 -0.162734 6.411580 116.604500 -0.000000 0.075500 0.217323 -0.398215
0.265000 4.883309 76.312357 -0.000000 0.339199 0.436846 -0.162746 7.168834 117.012318 -0.000000 0.075869 0.216752 -0.398229
0.270000 5.274740 76.533153 -0.000000 0.338775 0.437633 -0.162738 7.679395 117.245172 -0.000000 0.076256 0.216134 -0.398250
0.275000 5.792727 76.770866 -0.000000 0.338411 0.438057 -0.162741 7.945177 117.125836 -0.000000 0.076639 0.215586 -0.398259
0.280000 6.306622 76.971972 -0.000000 0.338036 0.438475 -0.162715 7.715542 116.549630 -0.000000 0.076999 0.215044 -0.398226
0.285000 6.689372 77.098609 -0.000000 0.337444 0.439204 -0.162616 6.840630 115.514598 -0.000000 0.077347 0.214508 -0.398209
0.290000 7.095050 77.120170 -0.000000 0.337064 0.439694 -0.162656 5.688845 114.112643 -0.000000 0.077680 0.214049 -0.398215
0.295000 7.444871 77.059796 -0.000000 0.336718 0.440103 -0.162679 4.341984 112.542783 -0.000000 0.077999 0.213549 -0.398197
0.300000 7.726304 76.954694 -0.000000 0.336408 0.440611 -0.162663 2.986542 111.009616 -0.000000 0.078296 0.213094 -0.398184
0.305000 7.930208 76.834772 -0.000000 0.336112 0.441168 -0.162659 1.775689 109.683085 -0.000000 0.078611 0.212629 -0.398199
0.310000 8.097014 76.705643 -0.000000 0.335808 0.441630 -0.162658 0.888047 108.695380 -0.000000 0.078881 0.212195 -0.398173
0.315000 8.234257 76.565681 -0.000000 0.335509 0.441957 -0.162652 0.407144 108.146333 -0.000000 0.079153 0.211769 -0.398196
0.320000 8.311481 76.412783 -0.000000 0.335195 0.442330 -0.162665 0.320816 108.091155 -0.000000 0.079443 0.211310 -0.398213
